<svg width="48" height="48" viewBox="0 0 48 48" fill="none" xmlns="http://www.w3.org/2000/svg">
<mask id="mask0_4137_19684" style="mask-type:alpha" maskUnits="userSpaceOnUse" x="0" y="0" width="48" height="48">
<rect width="48" height="48" fill="#D9D9D9"/>
</mask>
<g mask="url(#mask0_4137_19684)">
<path d="M9 42C8.2 42 7.5 41.7 6.9 41.1C6.3 40.5 6 39.8 6 39V9C6 8.2 6.3 7.5 6.9 6.9C7.5 6.3 8.2 6 9 6H27.95C28.3833 6 28.7417 6.14167 29.025 6.425C29.3083 6.70833 29.45 7.06667 29.45 7.5C29.45 7.93333 29.3083 8.29167 29.025 8.575C28.7417 8.85833 28.3833 9 27.95 9H9V39H39V20.1C39 19.6667 39.1417 19.3083 39.425 19.025C39.7083 18.7417 40.0667 18.6 40.5 18.6C40.9333 18.6 41.2917 18.7417 41.575 19.025C41.8583 19.3083 42 19.6667 42 20.1V39C42 39.8 41.7 40.5 41.1 41.1C40.5 41.7 39.8 42 39 42H9ZM36.5 17.1C36.0667 17.1 35.7083 16.9583 35.425 16.675C35.1417 16.3917 35 16.0333 35 15.6V13.05H32.45C32.0167 13.05 31.6583 12.9083 31.375 12.625C31.0917 12.3417 30.95 11.9833 30.95 11.55C30.95 11.1167 31.0917 10.7583 31.375 10.475C31.6583 10.1917 32.0167 10.05 32.45 10.05H35V7.5C35 7.06667 35.1417 6.70833 35.425 6.425C35.7083 6.14167 36.0667 6 36.5 6C36.9333 6 37.2917 6.14167 37.575 6.425C37.8583 6.70833 38 7.06667 38 7.5V10.05H40.55C40.9833 10.05 41.3417 10.1917 41.625 10.475C41.9083 10.7583 42.05 11.1167 42.05 11.55C42.05 11.9833 41.9083 12.3417 41.625 12.625C41.3417 12.9083 40.9833 13.05 40.55 13.05H38V15.6C38 16.0333 37.8583 16.3917 37.575 16.675C37.2917 16.9583 36.9333 17.1 36.5 17.1ZM13.55 33.9H34.5C34.8333 33.9 35.0667 33.7667 35.2 33.5C35.3333 33.2333 35.3 32.9667 35.1 32.7L29.4 25.1C29.2333 24.9 29.0333 24.8 28.8 24.8C28.5667 24.8 28.3667 24.9 28.2 25.1L22.45 32.65L18.35 27.25C18.1833 27.05 17.9833 26.95 17.75 26.95C17.5167 26.95 17.3167 27.05 17.15 27.25L12.95 32.7C12.7833 32.9667 12.775 33.2333 12.925 33.5C13.075 33.7667 13.2833 33.9 13.55 33.9Z" fill="#F2A29D"/>
</g>
</svg>
