<svg width="197" height="238" viewBox="0 0 197 238" fill="none" xmlns="http://www.w3.org/2000/svg">
<path d="M196.438 98.3708C196.438 152.461 160.356 175.69 97.2113 237.546C23.7577 162.804 0.561859 152.461 0.561859 98.3708C0.561859 44.281 44.4103 0.432617 98.5 0.432617C152.59 0.432617 196.438 44.281 196.438 98.3708Z" fill="white"/>
<path d="M86.3714 107.391L46.9536 57.1328H70.6043L98.1968 91.6234L124.804 57.1328H148.455L110.022 107.391L98.1968 91.6234L86.3714 107.391Z" fill="#4A4C58"/>
<path d="M86.3714 107.391L46.9536 157.648H70.6043L98.1968 123.158L124.804 157.648H148.455L110.022 107.391L98.1968 91.6236L86.3714 107.391Z" fill="#EA2920"/>
</svg>
