<svg width="16" height="16" viewBox="0 0 16 16" fill="none" xmlns="http://www.w3.org/2000/svg">
<g id="Icons">
<mask id="mask0_1448_139757" style="mask-type:alpha" maskUnits="userSpaceOnUse" x="0" y="0" width="16" height="16">
<rect id="Bounding box" width="16" height="16" transform="matrix(-1 0 0 1 16 0)" fill="#D9D9D9"/>
</mask>
<g mask="url(#mask0_1448_139757)">
<path id="arrow_forward" d="M8.46671 12.8667C8.58893 12.7445 8.65293 12.589 8.65871 12.4001C8.66404 12.2112 8.6056 12.0556 8.48337 11.9334L5.21671 8.66674H12.6667C12.8556 8.66674 13.014 8.60274 13.142 8.47474C13.2696 8.34718 13.3334 8.18896 13.3334 8.00007C13.3334 7.81118 13.2696 7.65274 13.142 7.52474C13.014 7.39718 12.8556 7.33341 12.6667 7.33341H5.21671L8.48337 4.06674C8.6056 3.94452 8.66404 3.78896 8.65871 3.60007C8.65293 3.41118 8.58893 3.25563 8.46671 3.13341C8.34448 3.01118 8.18893 2.95007 8.00004 2.95007C7.81115 2.95007 7.6556 3.01118 7.53337 3.13341L3.13337 7.53341C3.06671 7.58896 3.01937 7.6583 2.99137 7.74141C2.96382 7.82496 2.95004 7.91118 2.95004 8.00007C2.95004 8.08896 2.96382 8.1723 2.99137 8.25007C3.01937 8.32785 3.06671 8.40007 3.13337 8.46674L7.53337 12.8667C7.6556 12.989 7.81115 13.0501 8.00004 13.0501C8.18893 13.0501 8.34448 12.989 8.46671 12.8667Z" fill="#4A4C58"/>
</g>
</g>
</svg>
