<svg width="56" height="56" viewBox="0 0 56 56" fill="none" xmlns="http://www.w3.org/2000/svg">
<circle cx="28" cy="28" r="28" fill="url(#paint0_linear_529_19357)"/>
<path d="M24.6756 22.7393C24.0222 22.7393 23.5089 23.2643 23.5089 23.9059C23.5089 24.5476 24.0339 25.0726 24.6756 25.0726C25.3172 25.0726 25.8422 24.5476 25.8422 23.9059C25.8422 23.2643 25.3172 22.7393 24.6756 22.7393Z" fill="white"/>
<path d="M39.0377 19.8807C38.0577 17.6057 35.8994 16.334 32.8894 16.334H23.1127C19.3677 16.334 16.3344 19.3673 16.3344 23.1123V32.889C16.3344 35.899 17.6061 38.0573 19.8811 39.0373C20.1027 39.1307 20.3594 39.0723 20.5227 38.909L38.9094 20.5223C39.0844 20.3473 39.1427 20.0907 39.0377 19.8807ZM26.2861 28.2807C25.8311 28.724 25.2361 28.934 24.6411 28.934C24.0461 28.934 23.4511 28.7123 22.9961 28.2807C21.8061 27.1607 20.4994 25.3757 21.0011 23.2523C21.4444 21.3273 23.1477 20.464 24.6411 20.464C26.1344 20.464 27.8377 21.3273 28.2811 23.264C28.7711 25.3757 27.4644 27.1607 26.2861 28.2807Z" fill="white"/>
<path d="M36.7148 37.9521C36.9715 38.2088 36.9365 38.6288 36.6215 38.8038C35.5948 39.3754 34.3465 39.6671 32.8881 39.6671H23.1115C22.7731 39.6671 22.6331 39.2704 22.8665 39.0371L29.9131 31.9904C30.1465 31.7571 30.5081 31.7571 30.7415 31.9904L36.7148 37.9521Z" fill="white"/>
<path d="M39.6665 23.1114V32.8881C39.6665 34.3464 39.3748 35.6064 38.8032 36.6214C38.6282 36.9364 38.2082 36.9597 37.9515 36.7147L31.9782 30.7414C31.7448 30.5081 31.7448 30.1464 31.9782 29.9131L39.0248 22.8664C39.2698 22.633 39.6665 22.773 39.6665 23.1114Z" fill="white"/>
<defs>
<linearGradient id="paint0_linear_529_19357" x1="12" y1="10" x2="35.5" y2="52" gradientUnits="userSpaceOnUse">
<stop stop-color="#458EE6"/>
<stop offset="1" stop-color="#0864D3"/>
</linearGradient>
</defs>
</svg>
