<svg width="18" height="19" viewBox="0 0 18 19" fill="none" xmlns="http://www.w3.org/2000/svg">
<g id="calendar_today" clip-path="url(#clip0_4476_6070)">
<path id="Vector" d="M15 3.16406H14.25V2.41406C14.25 2.00156 13.9125 1.66406 13.5 1.66406C13.0875 1.66406 12.75 2.00156 12.75 2.41406V3.16406H5.25V2.41406C5.25 2.00156 4.9125 1.66406 4.5 1.66406C4.0875 1.66406 3.75 2.00156 3.75 2.41406V3.16406H3C2.175 3.16406 1.5 3.83906 1.5 4.66406V16.6641C1.5 17.4891 2.175 18.1641 3 18.1641H15C15.825 18.1641 16.5 17.4891 16.5 16.6641V4.66406C16.5 3.83906 15.825 3.16406 15 3.16406ZM14.25 16.6641H3.75C3.3375 16.6641 3 16.3266 3 15.9141V6.91406H15V15.9141C15 16.3266 14.6625 16.6641 14.25 16.6641Z" fill="#2C2F3C"/>
</g>
<defs>
<clipPath id="clip0_4476_6070">
<rect width="18" height="18" fill="white" transform="translate(0 0.914062)"/>
</clipPath>
</defs>
</svg>
