<svg width="34" height="40" viewBox="0 0 34 40" fill="none" xmlns="http://www.w3.org/2000/svg">
<path d="M33.0435 16.5217C33.0435 25.6464 26.9565 29.5652 16.3043 40C3.91304 27.3913 0 25.6464 0 16.5217C0 7.39703 7.39703 0 16.5217 0C25.6464 0 33.0435 7.39703 33.0435 16.5217Z" fill="white"/>
<path d="M14.4757 18.0437L7.82605 9.56543H11.8158L16.4706 15.3838L20.959 9.56543H24.9488L18.4654 18.0437L16.4706 15.3838L14.4757 18.0437Z" fill="#4A4C58"/>
<path d="M14.4757 18.0432L7.82605 26.5215H11.8158L16.4706 20.7031L20.959 26.5215H24.9488L18.4654 18.0432L16.4706 15.3834L14.4757 18.0432Z" fill="#EA2920"/>
</svg>
