<svg width="16" height="16" viewBox="0 0 16 16" fill="none" xmlns="http://www.w3.org/2000/svg">
<g id="Icons">
<mask id="mask0_3148_36520" style="mask-type:alpha" maskUnits="userSpaceOnUse" x="0" y="0" width="16" height="16">
<rect id="Bounding box" width="16" height="16" fill="#D9D9D9"/>
</mask>
<g mask="url(#mask0_3148_36520)">
<path id="business_center" d="M1.33334 8.66634V5.33301C1.33334 4.96634 1.46401 4.65256 1.72534 4.39167C1.98623 4.13034 2.30001 3.99967 2.66668 3.99967H5.33334V2.66634C5.33334 2.29967 5.46401 1.98567 5.72534 1.72434C5.98623 1.46345 6.30001 1.33301 6.66668 1.33301H9.33334C9.70001 1.33301 10.014 1.46345 10.2753 1.72434C10.5362 1.98567 10.6667 2.29967 10.6667 2.66634V3.99967H13.3333C13.7 3.99967 14.014 4.13034 14.2753 4.39167C14.5362 4.65256 14.6667 4.96634 14.6667 5.33301V8.66634H10V7.99967C10 7.81079 9.93623 7.65234 9.80868 7.52434C9.68068 7.39679 9.52223 7.33301 9.33334 7.33301H6.66668C6.47779 7.33301 6.31957 7.39679 6.19201 7.52434C6.06401 7.65234 6.00001 7.81079 6.00001 7.99967V8.66634H1.33334ZM6.66668 3.99967H9.33334V2.66634H6.66668V3.99967ZM7.33334 9.99967V8.66634H8.66668V9.99967H7.33334ZM2.66668 13.9997C2.30001 13.9997 1.98623 13.8692 1.72534 13.6083C1.46401 13.347 1.33334 13.033 1.33334 12.6663V9.99967H6.00001V10.6663C6.00001 10.8552 6.06401 11.0135 6.19201 11.141C6.31957 11.269 6.47779 11.333 6.66668 11.333H9.33334C9.52223 11.333 9.68068 11.269 9.80868 11.141C9.93623 11.0135 10 10.8552 10 10.6663V9.99967H14.6667V12.6663C14.6667 13.033 14.5362 13.347 14.2753 13.6083C14.014 13.8692 13.7 13.9997 13.3333 13.9997H2.66668Z" fill="#4A4C58"/>
</g>
</g>
</svg>
