<svg width="12" height="13" viewBox="0 0 12 13" fill="none" xmlns="http://www.w3.org/2000/svg">
<g id="vuesax/linear/profile">
<g id="vuesax/linear/profile_2">
<g id="profile">
<path id="Vector" d="M6.08003 5.50946C6.03003 5.50446 5.97003 5.50446 5.91503 5.50946C4.72503 5.46946 3.78003 4.49446 3.78003 3.29446C3.78003 2.06946 4.77003 1.07446 6.00003 1.07446C7.22503 1.07446 8.22003 2.06946 8.22003 3.29446C8.21503 4.49446 7.27003 5.46946 6.08003 5.50946Z" stroke="#BF2018" stroke-width="0.75" stroke-linecap="round" stroke-linejoin="round"/>
<path id="Vector_2" d="M3.57999 7.35446C2.36999 8.16446 2.36999 9.48446 3.57999 10.2895C4.95499 11.2095 7.20999 11.2095 8.58499 10.2895C9.79499 9.47946 9.79499 8.15946 8.58499 7.35446C7.21499 6.43946 4.95999 6.43946 3.57999 7.35446Z" stroke="#BF2018" stroke-width="0.75" stroke-linecap="round" stroke-linejoin="round"/>
</g>
</g>
</g>
</svg>
