<svg width="16" height="16" viewBox="0 0 16 16" fill="none" xmlns="http://www.w3.org/2000/svg">
<g id="Icons">
<mask id="mask0_3148_36530" style="mask-type:alpha" maskUnits="userSpaceOnUse" x="0" y="0" width="16" height="16">
<rect id="Bounding box" width="16" height="16" fill="#D9D9D9"/>
</mask>
<g mask="url(#mask0_3148_36530)">
<path id="mail" d="M2.66668 13.3337C2.30001 13.3337 1.98623 13.2032 1.72534 12.9423C1.46401 12.681 1.33334 12.367 1.33334 12.0003V4.00033C1.33334 3.63366 1.46401 3.31988 1.72534 3.05899C1.98623 2.79766 2.30001 2.66699 2.66668 2.66699H13.3333C13.7 2.66699 14.014 2.79766 14.2753 3.05899C14.5362 3.31988 14.6667 3.63366 14.6667 4.00033V12.0003C14.6667 12.367 14.5362 12.681 14.2753 12.9423C14.014 13.2032 13.7 13.3337 13.3333 13.3337H2.66668ZM8.00001 8.55033C8.05557 8.55033 8.11379 8.54188 8.17468 8.52499C8.23601 8.50855 8.29445 8.48366 8.35001 8.45033L13.0667 5.50033C13.1556 5.44477 13.2222 5.37544 13.2667 5.29233C13.3111 5.20877 13.3333 5.11699 13.3333 5.01699C13.3333 4.79477 13.2389 4.6281 13.05 4.51699C12.8611 4.40588 12.6667 4.41144 12.4667 4.53366L8.00001 7.33366L3.53334 4.53366C3.33334 4.41144 3.1389 4.40855 2.95001 4.52499C2.76112 4.64188 2.66668 4.80588 2.66668 5.01699C2.66668 5.1281 2.6889 5.22521 2.73334 5.30833C2.77779 5.39188 2.84445 5.45588 2.93334 5.50033L7.65001 8.45033C7.70557 8.48366 7.76401 8.50855 7.82534 8.52499C7.88623 8.54188 7.94445 8.55033 8.00001 8.55033Z" fill="#4A4C58"/>
</g>
</g>
</svg>
