<svg width="37" height="38" viewBox="0 0 37 38" fill="none" xmlns="http://www.w3.org/2000/svg">
<rect y="0.914062" width="37" height="37" rx="10" fill="#F5F5F6"/>
<path d="M14.67 22H10C8.9 22 8 22.9 8 24V30H14.67V22Z" stroke="#65110D" stroke-width="1.5" stroke-miterlimit="10" stroke-linecap="round" stroke-linejoin="round"/>
<path d="M19.33 18H16.66C15.56 18 14.66 18.9 14.66 20V30H21.33V20C21.33 18.9 20.44 18 19.33 18Z" stroke="#65110D" stroke-width="1.5" stroke-miterlimit="10" stroke-linecap="round" stroke-linejoin="round"/>
<path d="M26 25H21.33V30H28V27C28 25.9 27.1 25 26 25Z" stroke="#65110D" stroke-width="1.5" stroke-miterlimit="10" stroke-linecap="round" stroke-linejoin="round"/>
<path d="M18.52 10.0698L19.05 11.1298C19.12 11.2798 19.31 11.4198 19.47 11.4398L20.43 11.5998C21.04 11.6998 21.19 12.1498 20.75 12.5798L20 13.3298C19.87 13.4598 19.8 13.6998 19.84 13.8698L20.05 14.7898C20.22 15.5198 19.83 15.7998 19.19 15.4198L18.29 14.8898C18.13 14.7898 17.86 14.7898 17.7 14.8898L16.8 15.4198C16.16 15.7998 15.77 15.5198 15.94 14.7898L16.15 13.8698C16.19 13.6998 16.12 13.4498 15.99 13.3298L15.25 12.5898C14.81 12.1498 14.95 11.7098 15.57 11.6098L16.53 11.4498C16.69 11.4198 16.88 11.2798 16.95 11.1398L17.48 10.0798C17.77 9.4998 18.23 9.49982 18.52 10.0698Z" stroke="#65110D" stroke-width="1.5" stroke-linecap="round" stroke-linejoin="round"/>
</svg>
