<svg width="40" height="40" viewBox="0 0 40 40" fill="none" xmlns="http://www.w3.org/2000/svg">
<rect width="40" height="40" rx="6" fill="#BF2018"/>
<mask id="mask0_1428_30656" style="mask-type:alpha" maskUnits="userSpaceOnUse" x="8" y="8" width="24" height="24">
<rect x="8" y="8" width="24" height="24" fill="#D9D9D9"/>
</mask>
<g mask="url(#mask0_1428_30656)">
<path d="M19 26C18.7167 26 18.4793 25.904 18.288 25.712C18.096 25.5207 18 25.2833 18 25C18 24.7167 18.096 24.4793 18.288 24.288C18.4793 24.096 18.7167 24 19 24H21C21.2833 24 21.521 24.096 21.713 24.288C21.9043 24.4793 22 24.7167 22 25C22 25.2833 21.9043 25.5207 21.713 25.712C21.521 25.904 21.2833 26 21 26H19ZM12 16C11.7167 16 11.4793 15.9043 11.288 15.713C11.096 15.521 11 15.2833 11 15C11 14.7167 11.096 14.479 11.288 14.287C11.4793 14.0957 11.7167 14 12 14H28C28.2833 14 28.5207 14.0957 28.712 14.287C28.904 14.479 29 14.7167 29 15C29 15.2833 28.904 15.521 28.712 15.713C28.5207 15.9043 28.2833 16 28 16H12ZM15 21C14.7167 21 14.479 20.904 14.287 20.712C14.0957 20.5207 14 20.2833 14 20C14 19.7167 14.0957 19.479 14.287 19.287C14.479 19.0957 14.7167 19 15 19H25C25.2833 19 25.5207 19.0957 25.712 19.287C25.904 19.479 26 19.7167 26 20C26 20.2833 25.904 20.5207 25.712 20.712C25.5207 20.904 25.2833 21 25 21H15Z" fill="white"/>
</g>
</svg>
