<svg width="16" height="16" viewBox="0 0 16 16" fill="none" xmlns="http://www.w3.org/2000/svg">
<g id="Icons">
<mask id="mask0_1441_35796" style="mask-type:alpha" maskUnits="userSpaceOnUse" x="0" y="0" width="16" height="16">
<rect id="Bounding box" width="16" height="16" fill="#D9D9D9"/>
</mask>
<g mask="url(#mask0_1441_35796)">
<path id="arrow_forward" d="M7.53329 12.8667C7.41107 12.7445 7.34707 12.589 7.34129 12.4001C7.33596 12.2112 7.3944 12.0556 7.51663 11.9334L10.7833 8.66674H3.33329C3.1444 8.66674 2.98596 8.60274 2.85796 8.47474C2.7304 8.34718 2.66663 8.18896 2.66663 8.00007C2.66663 7.81118 2.7304 7.65274 2.85796 7.52474C2.98596 7.39718 3.1444 7.33341 3.33329 7.33341H10.7833L7.51663 4.06674C7.3944 3.94452 7.33596 3.78896 7.34129 3.60007C7.34707 3.41118 7.41107 3.25563 7.53329 3.13341C7.65552 3.01118 7.81107 2.95007 7.99996 2.95007C8.18885 2.95007 8.3444 3.01118 8.46663 3.13341L12.8666 7.53341C12.9333 7.58896 12.9806 7.6583 13.0086 7.74141C13.0362 7.82496 13.05 7.91118 13.05 8.00007C13.05 8.08896 13.0362 8.1723 13.0086 8.25007C12.9806 8.32785 12.9333 8.40007 12.8666 8.46674L8.46663 12.8667C8.3444 12.989 8.18885 13.0501 7.99996 13.0501C7.81107 13.0501 7.65552 12.989 7.53329 12.8667Z" fill="white"/>
</g>
</g>
</svg>
