<svg width="56" height="57" viewBox="0 0 56 57" fill="none" xmlns="http://www.w3.org/2000/svg">
<circle cx="28" cy="28.9141" r="28" fill="url(#paint0_linear_529_19337)"/>
<path d="M36.7617 21.8247L29.8317 17.823C28.7 17.1697 27.3 17.1697 26.1567 17.823L19.2383 21.8247C18.1067 22.478 17.4067 23.6913 17.4067 25.0097V32.9897C17.4067 34.2963 18.1067 35.5097 19.2383 36.1747L26.1683 40.1763C27.3 40.8297 28.7 40.8297 29.8433 40.1763L36.7733 36.1747C37.905 35.5213 38.605 34.308 38.605 32.9897V25.0097C38.5933 23.6913 37.8933 22.4897 36.7617 21.8247ZM28 23.563C29.505 23.563 30.7183 24.7763 30.7183 26.2813C30.7183 27.7863 29.505 28.9997 28 28.9997C26.495 28.9997 25.2817 27.7863 25.2817 26.2813C25.2817 24.788 26.495 23.563 28 23.563ZM31.1267 34.4363H24.8733C23.9283 34.4363 23.38 33.3863 23.905 32.6047C24.6983 31.4263 26.2383 30.633 28 30.633C29.7617 30.633 31.3017 31.4263 32.095 32.6047C32.62 33.3747 32.06 34.4363 31.1267 34.4363Z" fill="white"/>
<defs>
<linearGradient id="paint0_linear_529_19337" x1="0" y1="28.9141" x2="56" y2="28.9141" gradientUnits="userSpaceOnUse">
<stop stop-color="#F45353"/>
<stop offset="1" stop-color="#B10303"/>
</linearGradient>
</defs>
</svg>
