<svg width="56" height="57" viewBox="0 0 56 57" fill="none" xmlns="http://www.w3.org/2000/svg">
<circle cx="28" cy="28.5" r="28" fill="url(#paint0_linear_529_19345)"/>
<path d="M26.2617 27.0907L23.695 16.789C23.6367 16.5207 23.3917 16.334 23.1117 16.334C19.3667 16.334 16.3333 19.3673 16.3333 23.1123V29.7623C16.3333 30.159 16.7183 30.4507 17.1033 30.334L25.8533 27.8023C26.1567 27.7207 26.3433 27.4057 26.2617 27.0907Z" fill="white"/>
<path d="M26.9733 29.9597C26.8917 29.633 26.5533 29.4347 26.2267 29.528L16.765 32.2813C16.5083 32.363 16.3333 32.5963 16.3333 32.8647V32.888C16.3333 36.633 19.3667 39.6663 23.1117 39.6663H28.6183C29.0033 39.6663 29.295 39.3047 29.2017 38.9197L26.9733 29.9597Z" fill="white"/>
<path d="M32.8883 16.334H26.18C25.795 16.334 25.5033 16.6957 25.5967 17.0807L31.1267 39.2123C31.1967 39.4807 31.43 39.6673 31.71 39.6673H32.8767C36.6333 39.6673 39.6667 36.634 39.6667 32.889V23.1123C39.6667 19.3673 36.6333 16.334 32.8883 16.334Z" fill="white"/>
<defs>
<linearGradient id="paint0_linear_529_19345" x1="15" y1="14" x2="47" y2="54" gradientUnits="userSpaceOnUse">
<stop stop-color="#0DBF66"/>
<stop offset="1" stop-color="#037039"/>
</linearGradient>
</defs>
</svg>
