<svg width="50" height="50" viewBox="0 0 50 50" fill="none" xmlns="http://www.w3.org/2000/svg">
<g clip-path="url(#clip0_542_26680)">
<path d="M0 0H50V50H0V0Z" fill="white"/>
<path d="M0 0H50V15H0V0Z" fill="black"/>
<path d="M0 35H50V50H0V35Z" fill="#006600"/>
<path d="M18.2968 39.8457L18.7186 40.1582L29.6639 14.8457C30.2968 14.6582 30.6483 13.8457 30.9999 13.0332C31.2343 12.4707 32.1718 10.3145 32.5702 7.50195C31.4583 8.81942 30.516 10.3713 29.7811 12.0957C29.4296 12.9082 29.078 13.7207 29.2421 14.5645L18.2968 39.8457Z" fill="black" stroke="black" stroke-width="1.17188" stroke-miterlimit="10"/>
<path d="M18.2968 39.8457L18.7186 40.1582L29.6639 14.8457C30.2968 14.6582 30.6483 13.8457 30.9999 13.0332C31.2343 12.4707 32.1718 10.3145 32.5702 7.50195C31.4583 8.81942 30.516 10.3713 29.7811 12.0957C29.4296 12.9082 29.078 13.7207 29.2421 14.5645L18.2968 39.8457Z" fill="white"/>
<path d="M31.7032 39.8457L31.2814 40.1582L20.3361 14.8457C19.7032 14.6582 19.3517 13.8457 19.0001 13.0332C18.7657 12.4707 17.8282 10.3145 17.4298 7.50195C18.5417 8.81942 19.484 10.3713 20.2189 12.0957C20.5704 12.9082 20.922 13.7207 20.7579 14.5645L31.7032 39.8457Z" fill="black" stroke="black" stroke-width="1.17188" stroke-miterlimit="10"/>
<path d="M31.7032 39.8457L31.2814 40.1582L20.3361 14.8457C19.7032 14.6582 19.3517 13.8457 19.0001 13.0332C18.7657 12.4707 17.8282 10.3145 17.4298 7.50195C18.5417 8.81942 19.484 10.3713 20.2189 12.0957C20.5704 12.9082 20.922 13.7207 20.7579 14.5645L31.7032 39.8457Z" fill="white"/>
<path d="M50.0391 17.5H29.4531C28.75 15 26.4062 10 25 10C23.5938 10 21.25 15 20.5469 17.5H-0.015625V32.5H20.5469C21.25 35 23.5938 40 25 40C26.4062 40 28.75 35 29.4531 32.5H50.0391V17.5Z" fill="#BB0000"/>
<path d="M29.4532 32.499C30.1564 29.999 30.6251 27.499 30.6251 24.999C30.6251 22.499 30.1564 19.999 29.4532 17.499C28.7501 19.999 28.2814 22.499 28.2814 24.999C28.2814 27.499 28.7501 29.999 29.4532 32.499Z" fill="black"/>
<path d="M20.5468 32.499C19.8436 29.999 19.3749 27.499 19.3749 24.999C19.3749 22.499 19.8436 19.999 20.5468 17.499C21.2499 19.999 21.7186 22.499 21.7186 24.999C21.7186 27.499 21.2499 29.999 20.5468 32.499Z" fill="black"/>
<path d="M24.9999 26.873C25.5176 26.873 25.9374 26.0336 25.9374 24.998C25.9374 23.9625 25.5176 23.123 24.9999 23.123C24.4821 23.123 24.0624 23.9625 24.0624 24.998C24.0624 26.0336 24.4821 26.873 24.9999 26.873Z" fill="white"/>
<path d="M25.2343 26.8125C25.2343 26.8125 26.1718 29.3125 26.1718 33.375C26.1718 37.4375 25.2343 39.9375 25.2343 39.9375V26.8125Z" fill="white"/>
<path d="M24.7656 23.1865C24.7656 23.1865 23.8281 20.6865 23.8281 16.624C23.8281 12.5615 24.7656 10.0615 24.7656 10.0615V23.1865Z" fill="white"/>
<path d="M24.7657 26.8125C24.7657 26.8125 23.8282 29.3125 23.8282 33.375C23.8282 37.4375 24.7657 39.9375 24.7657 39.9375V26.8125Z" fill="white"/>
<path d="M25.2344 23.1865C25.2344 23.1865 26.1719 20.6865 26.1719 16.624C26.1719 12.5615 25.2344 10.0615 25.2344 10.0615V23.1865Z" fill="white"/>
</g>
<defs>
<clipPath id="clip0_542_26680">
<rect width="50" height="50" rx="25" fill="white"/>
</clipPath>
</defs>
</svg>
