<svg width="18" height="19" viewBox="0 0 18 19" fill="none" xmlns="http://www.w3.org/2000/svg">
<path id="Union" fill-rule="evenodd" clip-rule="evenodd" d="M11.9648 16.3216C11.7938 16.5553 11.6068 16.8108 11.6068 16.9165C11.792 16.91 12.4431 16.6052 12.6148 16.5186C13.139 16.2536 14.6637 15.2893 14.7499 14.977C14.791 14.8287 14.5841 14.7585 14.4312 14.7066C14.399 14.6957 14.3692 14.6855 14.3447 14.6757C13.525 14.348 13.243 14.1888 13.0869 14.2704C12.88 14.3785 12.8939 14.9091 12.1708 16.0298C12.1186 16.1114 12.0434 16.2142 11.9648 16.3216ZM4.44863 12.5085C4.37336 12.1779 4.318 11.8432 4.28287 11.506L4.28336 11.5035C4.26939 11.3588 4.25012 11.2291 4.23119 11.1016C4.20156 10.9022 4.17276 10.7083 4.16638 10.4716C4.16495 10.4221 4.16584 10.3623 4.16682 10.2973C4.1716 9.97866 4.17829 9.53274 3.92197 9.53274H0.961126C0.470804 9.53274 1.24487 11.8963 1.33148 12.1186C1.53408 12.6388 2.1827 13.9467 2.57595 14.245C2.71031 14.245 3.04718 14.0878 3.30969 13.9654C3.41483 13.9163 3.50804 13.8728 3.57153 13.8472C4.24216 13.576 4.53475 13.5849 4.61594 13.4583C4.68806 13.3458 4.59335 13.1263 4.44863 12.5085ZM6.18608 8.75635C7.04601 8.77016 8.39911 8.79191 8.59471 8.68834V8.68437C8.6416 8.44131 8.63016 7.89189 8.62113 7.45768C8.61798 7.30644 8.61512 7.16918 8.61512 7.06371C8.61512 5.96284 8.68608 5.5898 8.54029 5.45979C8.43524 5.3661 8.21764 5.39861 7.77983 5.37591C7.50696 5.36193 6.954 5.27721 6.45664 5.20101C5.98134 5.12819 5.55682 5.06315 5.47606 5.07505C5.29637 5.59178 5.16733 6.12472 5.09078 6.66637C5.08854 6.68218 5.08629 6.69806 5.08403 6.71399C5.00396 7.27878 4.91346 7.91726 4.90958 8.50634C4.90757 8.76834 4.98772 8.76586 5.33448 8.75512C5.41618 8.75259 5.51268 8.74961 5.6264 8.74951C5.75409 8.7494 5.95178 8.75258 6.18608 8.75635ZM1.12241 6.77976C0.993979 7.17112 0.713724 8.37654 0.823736 8.72465H0.824732L4.07678 8.75051C4.15775 8.57708 4.16212 8.29326 4.16624 8.02576C4.16792 7.91664 4.16956 7.81024 4.17634 7.71515C4.20471 7.32429 4.36202 6.13726 4.46157 5.7633C4.4637 5.75535 4.46598 5.74681 4.46841 5.73775C4.52516 5.52564 4.66022 5.02086 4.64924 4.82343C3.29416 4.47137 2.9112 4.02453 2.61865 4.07745C2.412 4.11483 2.25046 4.40156 1.8233 5.14716C1.53267 5.66514 1.29774 6.21238 1.12241 6.77976ZM10.7257 1.74721C10.5779 1.60299 9.37723 0.587033 9.37723 1.23898V4.37736C9.37723 4.49425 9.37723 4.55566 9.4079 4.58787C9.44508 4.6269 9.52732 4.62302 9.70926 4.62302C10.3161 4.62302 10.8912 4.52806 11.4488 4.43597C11.5604 4.41755 11.6713 4.39924 11.7816 4.38183C12.2813 4.30308 12.2803 4.30078 12.1189 3.91342C12.1091 3.88984 12.0986 3.86484 12.0877 3.8383C11.783 3.09834 11.2733 2.27831 10.7257 1.74721ZM8.60118 1.04951C7.55135 0.788435 5.66423 3.66972 5.79316 4.30774H5.79365C6.20731 4.44946 7.64891 4.5902 8.23282 4.62202C8.51099 4.63725 8.53383 4.60103 8.56018 4.55927C8.56481 4.55193 8.56954 4.54442 8.57579 4.53699C8.66888 4.41117 8.65096 1.38916 8.60118 1.04951ZM11.9906 2.00878C12.4401 2.69852 12.7448 3.18834 13.0156 4.02727C13.3575 4.06556 14.5946 3.58468 14.7753 3.40118C14.7555 3.33515 14.7524 3.31586 14.7424 3.30154C14.7309 3.28523 14.7103 3.27536 14.6453 3.21023C13.9967 2.55729 12.2594 1.36777 11.5924 1.4175C11.609 1.52555 11.6768 1.60649 11.771 1.71913C11.8346 1.79519 11.9104 1.8857 11.9906 2.00878ZM6.39897 1.41253C5.75383 1.38866 3.40477 2.87704 3.20914 3.40168L3.21262 3.40218C3.38436 3.54241 4.6139 4.08346 4.91506 4.03373L5.01462 3.894C5.03194 3.85872 5.05056 3.80929 5.06708 3.76543C5.07571 3.7425 5.08377 3.7211 5.09078 3.70403C5.12621 3.61132 5.15799 3.54192 5.19122 3.46933C5.20701 3.43485 5.22312 3.39966 5.24011 3.3609C5.34017 3.13165 5.46312 2.88301 5.57761 2.66768L6.18193 1.7477C6.21736 1.70407 6.24744 1.6749 6.2733 1.64982C6.3332 1.59175 6.37046 1.55563 6.39897 1.41253ZM3.45255 15.2102C3.5442 15.2855 3.63481 15.3599 3.67905 15.452L3.67606 15.4524C3.58298 15.5275 2.98414 15.7314 2.86019 15.7011C2.64504 15.6482 2.06537 14.8989 1.83495 14.601C1.8164 14.577 1.80011 14.556 1.78646 14.5384C1.29299 13.9007 0.895686 13.1942 0.607196 12.4414C-0.10265 10.6317 -0.167858 8.68586 0.295583 6.80263C0.429986 6.25164 0.665937 5.68821 0.892929 5.20733C1.36483 4.20729 2.002 3.39919 2.77556 2.64978C3.09514 2.34146 3.33159 2.11669 3.67158 1.88446C5.8723 0.379665 8.35478 -0.23001 11.0528 0.387621C12.6676 0.769239 14.1453 1.58969 15.3223 2.75819C15.6429 3.08292 16.0854 3.53545 16.3398 3.93875C16.9765 4.94974 17.3478 5.59124 17.7232 6.95082C18.4977 9.74657 17.6037 13.2584 15.5827 15.2714C15.5378 15.3152 15.5115 15.3458 15.4813 15.3808C15.467 15.3974 15.4518 15.415 15.4333 15.4355C15.391 15.4827 15.3462 15.5276 15.2989 15.5698L14.4358 16.3222C13.5203 17.0119 12.6139 17.4237 11.5113 17.7927C10.555 18.1105 8.70074 18.2756 7.57574 18.0324C6.58912 17.8175 5.94697 17.6529 5.05095 17.2367C5.01795 17.2213 4.9766 17.2036 4.93058 17.184C4.73019 17.0985 4.44135 16.9751 4.36848 16.8344C4.5233 16.7434 5.2202 16.4793 5.41932 16.5445C5.50381 16.5723 5.61431 16.6268 5.73257 16.6852C5.95431 16.7945 6.20331 16.9173 6.35914 16.903C6.36181 16.8923 6.36331 16.8813 6.36362 16.8702C6.36281 16.7445 6.30281 16.6804 6.23292 16.6059C6.21658 16.5885 6.19971 16.5705 6.18292 16.551C6.16921 16.535 6.15549 16.5198 6.14206 16.5049C6.06873 16.4237 6.00429 16.3523 5.99924 16.2262C6.08685 16.1541 6.56772 15.9358 6.70411 15.9055C6.9258 16.2278 7.1872 16.521 7.48215 16.7782C7.64642 16.914 8.30251 17.363 8.55638 17.2576C8.65945 17.0977 8.63698 16.2808 8.62249 15.7539C8.6185 15.609 8.61512 15.486 8.61512 15.4047C8.61489 15.3208 8.60984 15.2461 8.60529 15.1787C8.59017 14.9551 8.58062 14.8137 8.77192 14.6941C8.81143 14.6695 8.85554 14.6377 8.90254 14.6039C9.05395 14.4948 9.23534 14.3642 9.38918 14.3813C9.36031 14.7985 9.29759 17.0433 9.43547 17.2457L9.63509 17.2685C10.7262 16.997 11.5237 15.622 11.9946 14.6881C12.0038 14.6695 12.0159 14.6469 12.0295 14.6212C12.1292 14.4335 12.3146 14.0842 12.121 13.9919C11.9145 13.8935 10.6137 13.7373 10.2996 13.7373C10.3097 13.6289 10.3661 13.5893 10.4557 13.5264C10.4593 13.5238 10.4631 13.5212 10.4669 13.5185C10.5712 13.4442 10.6564 13.3782 10.7301 13.3211C11.0797 13.0504 11.1741 12.9773 11.8502 13.1416C11.9459 13.1637 12.053 13.176 12.1608 13.1884C12.2683 13.2008 12.3765 13.2132 12.4745 13.2355C12.6502 13.0192 12.8413 12.0291 12.8911 11.681C12.9277 11.4153 13.2101 11.1594 13.4868 10.9086C13.5903 10.8149 13.6929 10.7218 13.7817 10.6293C13.8655 10.9975 13.692 11.7446 13.5417 12.392C13.4296 12.8752 13.3303 13.3027 13.3605 13.4757C13.491 13.5542 13.7567 13.6371 14.0023 13.7136C14.1457 13.7584 14.2823 13.8009 14.381 13.8392C14.4324 13.8594 14.5323 13.9073 14.65 13.9636C14.9183 14.0922 15.2789 14.2649 15.3661 14.2535C15.6922 14.2097 16.5215 12.4613 16.621 12.226C16.8436 11.7104 17.298 10.1548 17.1716 9.54368L15.7843 9.5218C15.7255 9.35869 15.8017 8.96384 15.8614 8.76493C15.9478 8.75572 16.0871 8.75982 16.2437 8.76442C16.6452 8.77623 17.1603 8.79137 17.1875 8.59386C17.2632 8.04386 16.8003 6.52315 16.624 6.08206C16.4951 5.75882 15.6852 4.15905 15.4109 4.06805C15.2614 4.06607 14.8413 4.25656 14.5593 4.38442C14.4872 4.41707 14.4242 4.44564 14.377 4.46588C14.051 4.60313 13.7085 4.719 13.3496 4.83089C13.3348 5.01916 13.4213 5.36699 13.5065 5.70926C13.5701 5.96455 13.6329 6.21675 13.6522 6.39734C13.5238 6.50078 13.1037 6.67632 12.9434 6.70665C12.8777 6.60885 12.7494 5.9833 12.6896 5.69112C12.6818 5.65351 12.6753 5.62143 12.6701 5.59671C12.5437 4.99313 12.456 5.01627 12.0555 5.12201C11.8805 5.16821 11.6458 5.23017 11.3221 5.26253C11.2951 5.2652 11.2694 5.26771 11.2446 5.27012C11.0529 5.2888 10.9214 5.30161 10.7213 5.33862C10.5323 5.37386 10.3265 5.3772 10.1225 5.38051C9.97816 5.38286 9.83472 5.38519 9.6988 5.39879L9.47679 5.44503C9.30406 5.1397 9.35334 8.52872 9.42054 8.70674C9.64958 8.79633 10.7426 8.77341 11.431 8.75897C11.6253 8.7549 11.7873 8.7515 11.8886 8.7515C11.8459 8.91163 11.7588 9.00575 11.6655 9.10655C11.6238 9.15162 11.5809 9.19803 11.5401 9.25227C11.5246 9.27273 11.5105 9.29202 11.4972 9.31017C11.3807 9.46891 11.3284 9.5402 11.0179 9.5402C10.9139 9.54007 10.7778 9.53636 10.6277 9.53228C10.199 9.52061 9.65658 9.50585 9.42502 9.56258C9.34952 9.80295 9.36486 10.444 9.37618 10.9166C9.37963 11.0609 9.38271 11.1895 9.38271 11.2862C9.38271 11.6055 9.31104 11.6625 9.15791 11.7842C9.13886 11.7993 9.11856 11.8154 9.09698 11.8332C9.07715 11.8497 9.04437 11.8818 9.00472 11.9207C8.89605 12.0272 8.73577 12.1842 8.64897 12.2086C8.57608 11.9369 8.59785 11.449 8.61971 10.9592C8.64622 10.3651 8.67286 9.76817 8.53099 9.55014C8.20644 9.50638 5.14603 9.51086 4.94692 9.56059C4.77867 10.3826 5.23862 12.3762 5.45516 13.2082C5.81096 13.2428 6.17707 13.1635 6.54738 13.0833C6.94952 12.9963 7.35664 12.9081 7.76091 12.9635C7.74515 13.04 7.7092 13.0621 7.64572 13.1012C7.62701 13.1127 7.6059 13.1257 7.58221 13.1421C7.31279 13.3283 7.15432 13.4579 7.0375 13.5534C6.73735 13.7989 6.71227 13.8194 5.78669 13.9984C5.77003 14.1038 5.78349 14.1792 5.79443 14.2404C5.82402 14.4061 5.83514 14.4683 5.18088 14.7443L4.94343 14.2928C4.91605 14.1346 3.36494 14.7001 3.21162 14.9462C3.2572 15.0498 3.35546 15.1305 3.45255 15.2102ZM11.6368 7.58599C11.6368 7.58595 11.6367 7.5859 11.6367 7.58586L11.6362 7.58636C11.6364 7.58625 11.6366 7.58612 11.6368 7.58599ZM11.6368 7.58599C11.659 7.6899 11.7608 7.76287 11.907 7.86781C11.9501 7.89873 11.9971 7.93243 12.0471 7.9705C12.0871 8.001 12.1273 8.02843 12.1672 8.05568C12.2823 8.13427 12.3952 8.21141 12.4975 8.35666C12.1962 9.09721 9.12276 12.311 8.03749 13.1599L5.73313 14.8583C5.17265 15.1996 4.59096 15.5036 3.99173 15.7682C3.1027 16.1564 1.7414 16.5647 0.786949 16.111C0.470886 15.9617 0.363794 15.8652 0.185177 15.7042C0.132188 15.6565 0.0729031 15.603 0 15.5409C0.122899 16.0576 1.08032 16.5022 1.75379 16.5491C3.62056 16.6701 5.42688 15.8811 6.99037 14.9984C8.23569 14.2946 8.97895 13.74 10.0619 12.9318C10.1348 12.8775 10.2092 12.822 10.2853 12.7652C11.0262 12.2137 12.5545 10.7941 13.1888 10.1276C13.6449 9.64822 13.7906 9.44865 13.9363 9.44874C14.0468 9.44881 14.1573 9.56397 14.4035 9.75912C14.4988 9.83417 14.5665 9.89355 14.6186 9.93921C14.7473 10.0521 14.7805 10.0812 14.899 10.056C14.9557 9.88777 14.9658 9.68558 14.976 9.48362C14.9836 9.33224 14.9913 9.181 15.0184 9.04428L15.3529 5.97318C15.298 5.97771 11.7279 7.52296 11.6368 7.58599Z" fill="#E1261C"/>
</svg>
