<svg width="16" height="16" viewBox="0 0 16 16" fill="none" xmlns="http://www.w3.org/2000/svg">
<g id="Icons">
<mask id="mask0_3148_36525" style="mask-type:alpha" maskUnits="userSpaceOnUse" x="0" y="0" width="16" height="16">
<rect id="Bounding box" width="16" height="16" fill="#D9D9D9"/>
</mask>
<g mask="url(#mask0_3148_36525)">
<path id="location_on" d="M7.99993 7.99967C8.3666 7.99967 8.6806 7.86901 8.94193 7.60767C9.20282 7.34679 9.33326 7.03301 9.33326 6.66634C9.33326 6.29967 9.20282 5.98567 8.94193 5.72434C8.6806 5.46345 8.3666 5.33301 7.99993 5.33301C7.63326 5.33301 7.31948 5.46345 7.0586 5.72434C6.79726 5.98567 6.6666 6.29967 6.6666 6.66634C6.6666 7.03301 6.79726 7.34679 7.0586 7.60767C7.31948 7.86901 7.63326 7.99967 7.99993 7.99967ZM7.99993 14.4163C7.91104 14.4163 7.82215 14.3997 7.73326 14.3663C7.64437 14.333 7.5666 14.2886 7.49993 14.233C5.87771 12.7997 4.6666 11.4692 3.8666 10.2417C3.0666 9.01367 2.6666 7.86634 2.6666 6.79967C2.6666 5.13301 3.20282 3.80523 4.27526 2.81634C5.34726 1.82745 6.58882 1.33301 7.99993 1.33301C9.41104 1.33301 10.6526 1.82745 11.7246 2.81634C12.797 3.80523 13.3333 5.13301 13.3333 6.79967C13.3333 7.86634 12.9333 9.01367 12.1333 10.2417C11.3333 11.4692 10.1222 12.7997 8.49993 14.233C8.43326 14.2886 8.35548 14.333 8.26659 14.3663C8.17771 14.3997 8.08882 14.4163 7.99993 14.4163Z" fill="#4A4C58"/>
</g>
</g>
</svg>
