<svg width="18" height="19" viewBox="0 0 18 19" fill="none" xmlns="http://www.w3.org/2000/svg">
<path id="Union" fill-rule="evenodd" clip-rule="evenodd" d="M16.1727 6.1841C16.4064 6.35514 16.6619 6.5421 16.7675 6.5421C16.7611 6.35692 16.4562 5.70581 16.3697 5.53408C16.1047 5.00991 15.1404 3.48518 14.8281 3.39906C14.6798 3.35794 14.6096 3.56484 14.5576 3.71774C14.5467 3.74991 14.5366 3.77969 14.5268 3.80426C14.199 4.62395 14.0399 4.9059 14.1215 5.06206C14.2296 5.26893 14.7601 5.25506 15.8809 5.9781C15.9624 6.03029 16.0652 6.10551 16.1727 6.1841ZM12.3596 13.7003C12.029 13.7756 11.6942 13.8309 11.357 13.8661L11.3546 13.8656C11.2099 13.8795 11.0802 13.8988 10.9527 13.9177C10.7532 13.9474 10.5593 13.9762 10.3227 13.9825C10.2731 13.984 10.2134 13.9831 10.1484 13.9821C9.82974 13.9773 9.38381 13.9706 9.38381 14.227V17.1878C9.38381 17.6781 11.7474 16.9041 11.9697 16.8174C12.4899 16.6148 13.7977 15.9662 14.0961 15.573C14.0961 15.4386 13.9389 15.1017 13.8164 14.8392C13.7674 14.7341 13.7239 14.6409 13.6983 14.5774C13.427 13.9068 13.436 13.6142 13.3093 13.533C13.1969 13.4609 12.9774 13.5556 12.3596 13.7003ZM8.60742 11.9628C8.62124 11.1029 8.64298 9.74982 8.53942 9.55422H8.53544C8.29239 9.50733 7.74296 9.51876 7.30875 9.5278C7.15751 9.53095 7.02025 9.5338 6.91478 9.5338C5.81392 9.5338 5.44088 9.46285 5.31086 9.60863C5.21718 9.71369 5.24969 9.93129 5.22699 10.3691C5.213 10.642 5.12828 11.1949 5.05208 11.6923C4.97926 12.1676 4.91422 12.5921 4.92613 12.6729C5.44286 12.8526 5.9758 12.9816 6.51745 13.0581C6.53326 13.0604 6.54913 13.0626 6.56506 13.0649C7.12986 13.145 7.76833 13.2355 8.35741 13.2393C8.61942 13.2414 8.61693 13.1612 8.6062 12.8144C8.60367 12.7327 8.60068 12.6362 8.60058 12.5225C8.60048 12.3948 8.60365 12.1971 8.60742 11.9628ZM6.63083 17.0265C7.02219 17.1549 8.22762 17.4352 8.57572 17.3252V17.3242L8.60158 14.0721C8.42815 13.9912 8.14434 13.9868 7.87683 13.9827C7.76772 13.981 7.66132 13.9794 7.56623 13.9726C7.17536 13.9442 5.98833 13.7869 5.61437 13.6874C5.60642 13.6852 5.59789 13.6829 5.58882 13.6805C5.37671 13.6238 4.87194 13.4887 4.6745 13.4997C4.32245 14.8548 3.8756 15.2377 3.92853 15.5303C3.96591 15.7369 4.25263 15.8985 4.99823 16.3256C5.51621 16.6163 6.06346 16.8512 6.63083 17.0265ZM1.59828 7.42318C1.45407 7.57103 0.438108 8.77169 1.09005 8.77169H4.22843C4.34533 8.77169 4.40674 8.77169 4.43894 8.74102C4.47798 8.70385 4.47409 8.6216 4.47409 8.43967C4.47409 7.83281 4.37913 7.25775 4.28705 6.70009C4.26863 6.58853 4.25032 6.47766 4.23291 6.36737C4.15416 5.86765 4.15185 5.86861 3.7645 6.03005C3.74092 6.03988 3.71591 6.0503 3.68937 6.06124C2.94941 6.36588 2.12938 6.87562 1.59828 7.42318ZM0.900585 9.54774C0.639509 10.5976 3.52079 12.4847 4.15881 12.3558V12.3553C4.30054 11.9416 4.44127 10.5 4.4731 9.91611C4.48833 9.63794 4.45211 9.61509 4.41034 9.58875C4.403 9.58412 4.39549 9.57938 4.38806 9.57313C4.26225 9.48005 1.24023 9.49797 0.900585 9.54774ZM1.85985 6.1583C2.54959 5.7088 3.03942 5.40415 3.87834 5.13336C3.91663 4.79138 3.43576 3.55437 3.25226 3.37367C3.18622 3.39346 3.16694 3.39648 3.15262 3.40656C3.13631 3.41804 3.12643 3.43866 3.0613 3.5036C2.40836 4.15222 1.21885 5.8895 1.26858 6.55653C1.37663 6.53989 1.45757 6.47217 1.5702 6.37793C1.64626 6.31429 1.73678 6.23856 1.85985 6.1583ZM1.2636 11.75C1.23973 12.3951 2.72812 14.7442 3.25275 14.9398L3.25325 14.9363C3.39349 14.7646 3.93454 13.535 3.88481 13.2339L3.74507 13.1343C3.7098 13.117 3.66037 13.0984 3.6165 13.0818C3.59358 13.0732 3.57217 13.0652 3.55511 13.0581C3.46239 13.0227 3.39299 12.9909 3.32041 12.9577C3.28593 12.9419 3.25073 12.9258 3.21198 12.9088C2.98273 12.8088 2.73408 12.6858 2.51876 12.5713L1.59878 11.967C1.55514 11.9316 1.52597 11.9015 1.5009 11.8756C1.44282 11.8157 1.40671 11.7785 1.2636 11.75ZM15.0613 14.6964C15.1366 14.6047 15.211 14.5141 15.303 14.4699L15.3035 14.4729C15.3786 14.5659 15.5825 15.1648 15.5522 15.2887C15.4992 15.5039 14.7499 16.0836 14.4521 16.314C14.4281 16.3325 14.407 16.3488 14.3895 16.3625C13.7518 16.8559 13.0452 17.2532 12.2924 17.5417C10.4828 18.2516 8.53693 18.3168 6.6537 17.8533C6.10271 17.7189 5.53928 17.483 5.05841 17.256C4.05836 16.7841 3.25027 16.1469 2.50086 15.3734C2.19254 15.0538 1.96776 14.8173 1.73553 14.4773C0.230739 12.2766 -0.378936 9.79415 0.238696 7.09614C0.620313 5.48132 1.44076 4.00364 2.60927 2.8266C2.93399 2.50603 3.38653 2.0635 3.78983 1.80913C4.80081 1.17245 5.44231 0.801105 6.8019 0.425774C9.59765 -0.348785 13.1095 0.545242 15.1225 2.56626C15.1663 2.61113 15.1969 2.63748 15.2318 2.66761C15.2485 2.68195 15.2661 2.69715 15.2866 2.7156C15.3338 2.75788 15.3786 2.80275 15.4209 2.85L16.1733 3.71317C16.863 4.6286 17.2748 5.53507 17.6438 6.63767C17.9615 7.59392 18.1266 9.44819 17.8835 10.5732C17.6686 11.5598 17.504 12.202 17.0878 13.098C17.0724 13.131 17.0547 13.1723 17.0351 13.2183C16.9495 13.4187 16.8262 13.7076 16.6855 13.7804C16.5945 13.6256 16.3304 12.9287 16.3956 12.7296C16.4234 12.6451 16.4779 12.5346 16.5362 12.4164C16.6456 12.1946 16.7684 11.9456 16.7541 11.7898C16.7434 11.7871 16.7324 11.7856 16.7213 11.7853C16.5955 11.7861 16.5315 11.8461 16.457 11.916C16.4395 11.9323 16.4215 11.9492 16.402 11.966C16.3861 11.9797 16.3709 11.9934 16.356 12.0069C16.2748 12.0802 16.2034 12.1446 16.0773 12.1497C16.0052 12.0621 15.7869 11.5812 15.7566 11.4448C16.0789 11.2231 16.3721 10.9617 16.6293 10.6668C16.7651 10.5025 17.2141 9.84642 17.1087 9.59255C16.9488 9.48948 16.1318 9.51195 15.605 9.52644C15.4601 9.53042 15.3371 9.5338 15.2558 9.5338C15.1719 9.53404 15.0971 9.53909 15.0298 9.54364C14.8062 9.55875 14.6648 9.56831 14.5452 9.377C14.5205 9.3375 14.4888 9.29339 14.4549 9.24638C14.3459 9.09498 14.2153 8.91359 14.2324 8.75974C14.6496 8.78862 16.8943 8.85134 17.0967 8.71345L17.1196 8.51384C16.8481 7.42269 15.4731 6.62523 14.5392 6.15432C14.5206 6.14509 14.4979 6.13305 14.4722 6.1194C14.2845 6.01976 13.9353 5.83437 13.843 6.02788C13.7445 6.23446 13.5884 7.53519 13.5884 7.84929C13.48 7.83925 13.4403 7.78283 13.3775 7.69327C13.3749 7.68958 13.3722 7.68583 13.3696 7.68203C13.2952 7.57769 13.2293 7.49257 13.1722 7.41881C12.9015 7.06926 12.8284 6.97486 12.9926 6.29868C13.0148 6.20302 13.0271 6.0959 13.0395 5.98816C13.0518 5.88061 13.0643 5.77244 13.0866 5.67445C12.8703 5.49873 11.8802 5.30758 11.5321 5.2578C11.2664 5.22121 11.0105 4.93881 10.7597 4.66209C10.6659 4.55864 10.5729 4.45598 10.4803 4.36726C10.8485 4.28346 11.5957 4.4569 12.2431 4.60718C12.7262 4.71934 13.1538 4.8186 13.3268 4.78839C13.4053 4.65798 13.4881 4.39226 13.5647 4.14667C13.6094 4.00323 13.652 3.86667 13.6903 3.76792C13.7105 3.7165 13.7583 3.61658 13.8147 3.49895C13.9433 3.23058 14.116 2.87001 14.1046 2.7828C14.0608 2.45675 12.3123 1.62743 12.0771 1.52788C11.5614 1.30537 10.0059 0.850882 9.39475 0.97732L9.37287 2.36466C9.20976 2.4234 8.81492 2.34724 8.616 2.2875C8.6068 2.20108 8.61089 2.06179 8.61549 1.90525C8.6273 1.50368 8.64245 0.988615 8.44493 0.961393C7.89493 0.885729 6.37423 1.34867 5.93313 1.52489C5.6099 1.65382 4.01012 2.46372 3.91912 2.738C3.91714 2.88749 4.10763 3.30766 4.23549 3.58967C4.26815 3.6617 4.29672 3.72471 4.31695 3.7719C4.4542 4.09796 4.57007 4.44044 4.68196 4.79934C4.87023 4.81417 5.21806 4.72758 5.56033 4.64238C5.81563 4.57882 6.06783 4.51604 6.24842 4.49669C6.35185 4.62512 6.52739 5.04525 6.55773 5.20554C6.45992 5.27125 5.83437 5.39948 5.54219 5.45937C5.50459 5.46708 5.47251 5.47366 5.44778 5.47882C4.84421 5.60527 4.86735 5.6929 4.97309 6.09341C5.01928 6.26839 5.08125 6.50309 5.11361 6.82683C5.11627 6.85384 5.11878 6.87956 5.12119 6.90429C5.13988 7.09604 5.15269 7.22748 5.18969 7.42766C5.22493 7.61658 5.22827 7.8224 5.23159 8.02643C5.23393 8.17077 5.23626 8.3142 5.24986 8.45012L5.29611 8.67213C4.99077 8.84487 8.37979 8.79559 8.55782 8.72838C8.6474 8.49935 8.62448 7.40629 8.61005 6.71798C8.60597 6.52367 8.60257 6.36161 8.60257 6.26035C8.76271 6.303 8.85683 6.39011 8.95762 6.48339C9.0027 6.5251 9.0491 6.56804 9.10334 6.6088C9.1238 6.62428 9.1431 6.63844 9.16125 6.65175C9.31999 6.76822 9.39127 6.82052 9.39127 7.13098C9.39114 7.235 9.38744 7.37114 9.38335 7.5212C9.37169 7.94994 9.35692 8.49234 9.41365 8.72391C9.65403 8.79941 10.2951 8.78406 10.7677 8.77275C10.912 8.76929 11.0406 8.76622 11.1372 8.76622C11.4566 8.76622 11.5135 8.83788 11.6352 8.99102C11.6504 9.01006 11.6665 9.03037 11.6843 9.05195C11.7008 9.07178 11.7329 9.10456 11.7717 9.14421C11.8782 9.25288 12.0353 9.41316 12.0597 9.49996C11.788 9.57285 11.3001 9.55108 10.8102 9.52922C10.2162 9.50271 9.61925 9.47607 9.40122 9.61793C9.35746 9.94249 9.36193 13.0029 9.41166 13.202C10.2337 13.3703 12.2273 12.9103 13.0593 12.6938C13.0938 12.338 13.0146 11.9719 12.9344 11.6015C12.8473 11.1994 12.7592 10.7923 12.8146 10.388C12.891 10.4038 12.9132 10.4397 12.9523 10.5032C12.9638 10.5219 12.9768 10.543 12.9931 10.5667C13.1794 10.8361 13.309 10.9946 13.4045 11.1114C13.65 11.4116 13.6705 11.4367 13.8495 12.3622C13.9549 12.3789 14.0303 12.3654 14.0915 12.3545C14.2572 12.3249 14.3194 12.3138 14.5954 12.9681L14.1438 13.2055C13.9857 13.2329 14.5511 14.784 14.7973 14.9373C14.9009 14.8917 14.9816 14.7935 15.0613 14.6964ZM7.43706 6.51216C7.43702 6.51217 7.43698 6.51218 7.43693 6.51219L7.43744 6.51268C7.43732 6.51252 7.4372 6.51235 7.43706 6.51216ZM7.43706 6.51216C7.54097 6.4899 7.61395 6.38817 7.71889 6.24188C7.74981 6.19878 7.7835 6.15181 7.82158 6.10186C7.85208 6.06181 7.8795 6.02165 7.90675 5.98175C7.98535 5.86666 8.06249 5.7537 8.20773 5.6514C8.94828 5.9527 12.162 9.02616 13.011 10.1114L14.7094 12.4158C15.0507 12.9763 15.3547 13.558 15.6193 14.1572C16.0075 15.0462 16.4158 16.4075 15.9621 17.362C15.8128 17.678 15.7163 17.7851 15.5553 17.9637C15.5075 18.0167 15.4541 18.076 15.3919 18.1489C15.9087 18.026 16.3533 17.0686 16.4002 16.3951C16.5212 14.5284 15.7322 12.722 14.8495 11.1586C14.1457 9.91324 13.5911 9.16998 12.7829 8.087C12.7285 8.01415 12.673 7.93976 12.6163 7.86358C12.0648 7.12272 10.6452 5.59441 9.9787 4.96009C9.49929 4.50403 9.29972 4.35829 9.29982 4.21267C9.29988 4.10212 9.41504 3.99164 9.61019 3.74547C9.68525 3.65015 9.74462 3.58244 9.79028 3.53036C9.90319 3.40161 9.93225 3.36847 9.90712 3.24992C9.73885 3.19327 9.53665 3.18308 9.3347 3.17291C9.18332 3.16528 9.03207 3.15766 8.89535 3.13049L5.82426 2.79598C5.82878 2.85088 7.37404 6.421 7.43706 6.51216Z" fill="#E1261C"/>
</svg>
