<svg width="37" height="36" viewBox="0 0 37 36" fill="none" xmlns="http://www.w3.org/2000/svg">
<rect x="0.333313" width="36" height="36" rx="6" fill="#E1891C"/>
<path d="M8.33331 26C8.04998 26 7.81265 25.904 7.62131 25.712C7.42931 25.5207 7.33331 25.2833 7.33331 25V23.2C7.33331 22.6333 7.47931 22.1123 7.77131 21.637C8.06265 21.1623 8.44998 20.8 8.93331 20.55C9.96665 20.0333 11.0166 19.6457 12.0833 19.387C13.15 19.129 14.2333 19 15.3333 19C16.4333 19 17.5166 19.129 18.5833 19.387C19.65 19.6457 20.7 20.0333 21.7333 20.55C22.2166 20.8 22.604 21.1623 22.8953 21.637C23.1873 22.1123 23.3333 22.6333 23.3333 23.2V25C23.3333 25.2833 23.2373 25.5207 23.0453 25.712C22.854 25.904 22.6166 26 22.3333 26H8.33331ZM24.8583 26C25.0083 25.8833 25.125 25.7373 25.2083 25.562C25.2916 25.3873 25.3333 25.1917 25.3333 24.975V23C25.3333 22.2667 25.1293 21.5623 24.7213 20.887C24.3126 20.2123 23.7333 19.6333 22.9833 19.15C23.8333 19.25 24.6333 19.4207 25.3833 19.662C26.1333 19.904 26.8333 20.2 27.4833 20.55C28.0833 20.8833 28.5416 21.254 28.8583 21.662C29.175 22.0707 29.3333 22.5167 29.3333 23V25C29.3333 25.2833 29.2373 25.5207 29.0453 25.712C28.854 25.904 28.6166 26 28.3333 26H24.8583ZM15.3333 18C14.2333 18 13.2916 17.6083 12.5083 16.825C11.725 16.0417 11.3333 15.1 11.3333 14C11.3333 12.9 11.725 11.9583 12.5083 11.175C13.2916 10.3917 14.2333 10 15.3333 10C16.4333 10 17.375 10.3917 18.1583 11.175C18.9416 11.9583 19.3333 12.9 19.3333 14C19.3333 15.1 18.9416 16.0417 18.1583 16.825C17.375 17.6083 16.4333 18 15.3333 18ZM25.3333 14C25.3333 15.1 24.9416 16.0417 24.1583 16.825C23.375 17.6083 22.4333 18 21.3333 18C21.15 18 20.9166 17.9793 20.6333 17.938C20.35 17.896 20.1166 17.85 19.9333 17.8C20.3833 17.2667 20.729 16.675 20.9703 16.025C21.2123 15.375 21.3333 14.7 21.3333 14C21.3333 13.3 21.2123 12.625 20.9703 11.975C20.729 11.325 20.3833 10.7333 19.9333 10.2C20.1666 10.1167 20.4 10.0623 20.6333 10.037C20.8666 10.0123 21.1 10 21.3333 10C22.4333 10 23.375 10.3917 24.1583 11.175C24.9416 11.9583 25.3333 12.9 25.3333 14ZM9.33331 24H21.3333V23.2C21.3333 23.0167 21.2876 22.85 21.1963 22.7C21.1043 22.55 20.9833 22.4333 20.8333 22.35C19.9333 21.9 19.025 21.5623 18.1083 21.337C17.1916 21.1123 16.2666 21 15.3333 21C14.4 21 13.475 21.1123 12.5583 21.337C11.6416 21.5623 10.7333 21.9 9.83331 22.35C9.68331 22.4333 9.56265 22.55 9.47131 22.7C9.37931 22.85 9.33331 23.0167 9.33331 23.2V24ZM15.3333 16C15.8833 16 16.3543 15.804 16.7463 15.412C17.1376 15.0207 17.3333 14.55 17.3333 14C17.3333 13.45 17.1376 12.9793 16.7463 12.588C16.3543 12.196 15.8833 12 15.3333 12C14.7833 12 14.3126 12.196 13.9213 12.588C13.5293 12.9793 13.3333 13.45 13.3333 14C13.3333 14.55 13.5293 15.0207 13.9213 15.412C14.3126 15.804 14.7833 16 15.3333 16Z" fill="#F8E3C9"/>
</svg>
