<svg width="24" height="25" viewBox="0 0 24 25" fill="none" xmlns="http://www.w3.org/2000/svg">
<g id="notifications_none" clip-path="url(#clip0_2240_3218)">
<path id="Vector" d="M18.8765 17.79L17.5865 16.5V11.5C17.5865 8.43 15.9465 5.86 13.0865 5.18V4.5C13.0865 3.67 12.4165 3 11.5865 3C10.7565 3 10.0865 3.67 10.0865 4.5V5.18C7.21651 5.86 5.58651 8.42 5.58651 11.5V16.5L4.29651 17.79C3.66651 18.42 4.10651 19.5 4.99651 19.5H18.1665C19.0665 19.5 19.5065 18.42 18.8765 17.79ZM15.5865 17.5H7.58651V11.5C7.58651 9.02 9.09651 7 11.5865 7C14.0765 7 15.5865 9.02 15.5865 11.5V17.5ZM11.5865 22.5C12.6865 22.5 13.5865 21.6 13.5865 20.5H9.58651C9.58651 21.6 10.4765 22.5 11.5865 22.5Z" fill="#8F9198"/>
<circle id="Ellipse 6" cx="17" cy="6.76758" r="4.5" fill="#F21673" stroke="#F4F4F5"/>
</g>
<defs>
<clipPath id="clip0_2240_3218">
<rect width="24" height="24" fill="white" transform="translate(0 0.5)"/>
</clipPath>
</defs>
</svg>
