<svg width="56" height="57" viewBox="0 0 56 57" fill="none" xmlns="http://www.w3.org/2000/svg">
<circle cx="28" cy="28.9141" r="28" fill="url(#paint0_linear_529_19377)"/>
<path d="M24.5 17.333C21.4433 17.333 18.9583 19.818 18.9583 22.8747C18.9583 25.873 21.3033 28.2997 24.36 28.4047C24.4533 28.393 24.5466 28.393 24.6166 28.4047C24.64 28.4047 24.6516 28.4047 24.675 28.4047C24.6866 28.4047 24.6866 28.4047 24.6983 28.4047C27.685 28.2997 30.03 25.873 30.0416 22.8747C30.0416 19.818 27.5566 17.333 24.5 17.333Z" fill="white"/>
<path d="M30.4267 31.5084C27.1717 29.3384 21.8633 29.3384 18.585 31.5084C17.1033 32.5 16.2867 33.8417 16.2867 35.2767C16.2867 36.7117 17.1033 38.0417 18.5733 39.0217C20.2067 40.1184 22.3533 40.6667 24.5 40.6667C26.6467 40.6667 28.7933 40.1184 30.4267 39.0217C31.8967 38.03 32.7134 36.7 32.7134 35.2534C32.7017 33.8184 31.8967 32.4884 30.4267 31.5084Z" fill="white"/>
<path d="M37.3217 23.5631C37.5083 25.8265 35.8983 27.8098 33.67 28.0781C33.6583 28.0781 33.6583 28.0781 33.6467 28.0781H33.6117C33.5417 28.0781 33.4717 28.0781 33.4133 28.1015C32.2817 28.1598 31.2433 27.7981 30.4617 27.1331C31.6633 26.0598 32.3517 24.4498 32.2117 22.6998C32.13 21.7548 31.8033 20.8915 31.3133 20.1565C31.7567 19.9348 32.27 19.7948 32.795 19.7481C35.0817 19.5498 37.1233 21.2531 37.3217 23.5631Z" fill="white"/>
<path d="M39.655 34.3551C39.5617 35.4868 38.8383 36.4668 37.625 37.1318C36.4583 37.7735 34.9883 38.0768 33.53 38.0418C34.37 37.2835 34.86 36.3385 34.9533 35.3351C35.07 33.8885 34.3817 32.5001 33.005 31.3918C32.2233 30.7735 31.3133 30.2835 30.3217 29.9218C32.9 29.1751 36.1433 29.6768 38.1383 31.2868C39.2117 32.1501 39.76 33.2351 39.655 34.3551Z" fill="white"/>
<defs>
<linearGradient id="paint0_linear_529_19377" x1="0" y1="28.9141" x2="56" y2="28.9141" gradientUnits="userSpaceOnUse">
<stop stop-color="#F45353"/>
<stop offset="1" stop-color="#B10303"/>
</linearGradient>
</defs>
</svg>
