<svg width="24" height="24" viewBox="0 0 24 24" fill="none" xmlns="http://www.w3.org/2000/svg">
<mask id="mask0_1311_30272" style="mask-type:alpha" maskUnits="userSpaceOnUse" x="4" y="0" width="16" height="15">
<rect x="4.8" width="14.4" height="14.4" fill="#D9D9D9"/>
</mask>
<g mask="url(#mask0_1311_30272)">
<path d="M8.82003 8.81993C8.71003 8.70993 8.65503 8.56993 8.65503 8.39993C8.65503 8.22993 8.71003 8.08993 8.82003 7.97993L11.58 5.21993C11.64 5.15993 11.705 5.11733 11.775 5.09213C11.845 5.06733 11.92 5.05493 12 5.05493C12.08 5.05493 12.1576 5.06993 12.2328 5.09993C12.3076 5.12993 12.37 5.16993 12.42 5.21993L15.18 7.97993C15.29 8.08993 15.345 8.22993 15.345 8.39993C15.345 8.56993 15.29 8.70993 15.18 8.81993C15.07 8.92993 14.93 8.98493 14.76 8.98493C14.59 8.98493 14.45 8.92993 14.34 8.81993L12 6.47993L9.66003 8.81993C9.55003 8.92993 9.41003 8.98493 9.24003 8.98493C9.07003 8.98493 8.93003 8.92993 8.82003 8.81993Z" fill="#8F9198"/>
</g>
<mask id="mask1_1311_30272" style="mask-type:alpha" maskUnits="userSpaceOnUse" x="4" y="9" width="16" height="15">
<rect x="4.8" y="9.59998" width="14.4" height="14.4" fill="#D9D9D9"/>
</mask>
<g mask="url(#mask1_1311_30272)">
<path d="M12 18.5848C11.92 18.5848 11.8426 18.5698 11.7678 18.5398C11.6926 18.5098 11.63 18.4698 11.58 18.4198L8.82003 15.6598C8.71003 15.5498 8.65503 15.4098 8.65503 15.2398C8.65503 15.0698 8.71003 14.9298 8.82003 14.8198C8.93003 14.7098 9.07003 14.6548 9.24003 14.6548C9.41003 14.6548 9.55003 14.7098 9.66003 14.8198L12 17.1598L14.34 14.8198C14.45 14.7098 14.59 14.6548 14.76 14.6548C14.93 14.6548 15.07 14.7098 15.18 14.8198C15.29 14.9298 15.345 15.0698 15.345 15.2398C15.345 15.4098 15.29 15.5498 15.18 15.6598L12.42 18.4198C12.36 18.4798 12.295 18.5222 12.225 18.547C12.155 18.5722 12.08 18.5848 12 18.5848Z" fill="#8F9198"/>
</g>
</svg>
