<svg width="37" height="36" viewBox="0 0 37 36" fill="none" xmlns="http://www.w3.org/2000/svg">
<rect x="0.666656" width="36" height="36" rx="6" fill="#A01B14"/>
<path d="M8.66666 26C8.38332 26 8.14599 25.904 7.95466 25.712C7.76266 25.5207 7.66666 25.2833 7.66666 25V23.2C7.66666 22.6333 7.81266 22.1123 8.10466 21.637C8.39599 21.1623 8.78332 20.8 9.26666 20.55C10.3 20.0333 11.35 19.6457 12.4167 19.387C13.4833 19.129 14.5667 19 15.6667 19C16.7667 19 17.85 19.129 18.9167 19.387C19.9833 19.6457 21.0333 20.0333 22.0667 20.55C22.55 20.8 22.9373 21.1623 23.2287 21.637C23.5207 22.1123 23.6667 22.6333 23.6667 23.2V25C23.6667 25.2833 23.5707 25.5207 23.3787 25.712C23.1873 25.904 22.95 26 22.6667 26H8.66666ZM25.1917 26C25.3417 25.8833 25.4583 25.7373 25.5417 25.562C25.625 25.3873 25.6667 25.1917 25.6667 24.975V23C25.6667 22.2667 25.4627 21.5623 25.0547 20.887C24.646 20.2123 24.0667 19.6333 23.3167 19.15C24.1667 19.25 24.9667 19.4207 25.7167 19.662C26.4667 19.904 27.1667 20.2 27.8167 20.55C28.4167 20.8833 28.875 21.254 29.1917 21.662C29.5083 22.0707 29.6667 22.5167 29.6667 23V25C29.6667 25.2833 29.5707 25.5207 29.3787 25.712C29.1873 25.904 28.95 26 28.6667 26H25.1917ZM15.6667 18C14.5667 18 13.625 17.6083 12.8417 16.825C12.0583 16.0417 11.6667 15.1 11.6667 14C11.6667 12.9 12.0583 11.9583 12.8417 11.175C13.625 10.3917 14.5667 10 15.6667 10C16.7667 10 17.7083 10.3917 18.4917 11.175C19.275 11.9583 19.6667 12.9 19.6667 14C19.6667 15.1 19.275 16.0417 18.4917 16.825C17.7083 17.6083 16.7667 18 15.6667 18ZM25.6667 14C25.6667 15.1 25.275 16.0417 24.4917 16.825C23.7083 17.6083 22.7667 18 21.6667 18C21.4833 18 21.25 17.9793 20.9667 17.938C20.6833 17.896 20.45 17.85 20.2667 17.8C20.7167 17.2667 21.0623 16.675 21.3037 16.025C21.5457 15.375 21.6667 14.7 21.6667 14C21.6667 13.3 21.5457 12.625 21.3037 11.975C21.0623 11.325 20.7167 10.7333 20.2667 10.2C20.5 10.1167 20.7333 10.0623 20.9667 10.037C21.2 10.0123 21.4333 10 21.6667 10C22.7667 10 23.7083 10.3917 24.4917 11.175C25.275 11.9583 25.6667 12.9 25.6667 14ZM9.66666 24H21.6667V23.2C21.6667 23.0167 21.621 22.85 21.5297 22.7C21.4377 22.55 21.3167 22.4333 21.1667 22.35C20.2667 21.9 19.3583 21.5623 18.4417 21.337C17.525 21.1123 16.6 21 15.6667 21C14.7333 21 13.8083 21.1123 12.8917 21.337C11.975 21.5623 11.0667 21.9 10.1667 22.35C10.0167 22.4333 9.89599 22.55 9.80466 22.7C9.71266 22.85 9.66666 23.0167 9.66666 23.2V24ZM15.6667 16C16.2167 16 16.6877 15.804 17.0797 15.412C17.471 15.0207 17.6667 14.55 17.6667 14C17.6667 13.45 17.471 12.9793 17.0797 12.588C16.6877 12.196 16.2167 12 15.6667 12C15.1167 12 14.646 12.196 14.2547 12.588C13.8627 12.9793 13.6667 13.45 13.6667 14C13.6667 14.55 13.8627 15.0207 14.2547 15.412C14.646 15.804 15.1167 16 15.6667 16Z" fill="white"/>
</svg>
