<svg width="56" height="57" viewBox="0 0 56 57" fill="none" xmlns="http://www.w3.org/2000/svg">
<circle cx="28" cy="28.9141" r="28" fill="url(#paint0_linear_529_19385)"/>
<path d="M22.925 39.3951C22.89 39.3951 22.8433 39.4185 22.8083 39.4185C20.545 38.2985 18.7017 36.4435 17.57 34.1801C17.57 34.1451 17.5933 34.0985 17.5933 34.0635C19.0167 34.4835 20.4867 34.7985 21.945 35.0435C22.2017 36.5135 22.505 37.9718 22.925 39.3951Z" fill="white"/>
<path d="M38.43 34.1918C37.275 36.5135 35.35 38.3918 33.005 39.5235C33.4483 38.0418 33.8217 36.5485 34.0667 35.0435C35.5367 34.7985 36.9833 34.4835 38.4067 34.0635C38.395 34.1101 38.43 34.1568 38.43 34.1918Z" fill="white"/>
<path d="M38.5233 23.9959C37.0533 23.5525 35.5717 23.1909 34.0667 22.9342C33.8217 21.4292 33.46 19.9359 33.005 18.4775C35.42 19.6325 37.3683 21.5809 38.5233 23.9959Z" fill="white"/>
<path d="M22.925 18.6043C22.505 20.0277 22.2016 21.4743 21.9566 22.9443C20.4516 23.1777 18.9583 23.551 17.4766 23.9943C18.6083 21.6493 20.4866 19.7243 22.8083 18.5693C22.8433 18.5693 22.89 18.6043 22.925 18.6043Z" fill="white"/>
<path d="M32.0717 22.688C29.365 22.3847 26.635 22.3847 23.9283 22.688C24.22 21.0897 24.5933 19.4913 25.1183 17.9513C25.1417 17.858 25.13 17.788 25.1417 17.6947C26.0633 17.473 27.0083 17.333 28 17.333C28.98 17.333 29.9367 17.473 30.8467 17.6947C30.8583 17.788 30.8583 17.858 30.8817 17.9513C31.4067 19.503 31.78 21.0897 32.0717 22.688Z" fill="white"/>
<path d="M21.6883 33.0711C20.0783 32.7794 18.4916 32.4061 16.9516 31.8811C16.8583 31.8577 16.7883 31.8694 16.695 31.8577C16.4733 30.9361 16.3333 29.9911 16.3333 28.9994C16.3333 28.0194 16.4733 27.0627 16.695 26.1527C16.7883 26.1411 16.8583 26.1411 16.9516 26.1177C18.5033 25.6044 20.0783 25.2194 21.6883 24.9277C21.3966 27.6344 21.3966 30.3644 21.6883 33.0711Z" fill="white"/>
<path d="M39.6666 28.9994C39.6666 29.9911 39.5266 30.9361 39.305 31.8577C39.2116 31.8694 39.1416 31.8577 39.0483 31.8811C37.4966 32.3944 35.91 32.7794 34.3116 33.0711C34.615 30.3644 34.615 27.6344 34.3116 24.9277C35.91 25.2194 37.5083 25.5927 39.0483 26.1177C39.1416 26.1411 39.2116 26.1527 39.305 26.1527C39.5266 27.0744 39.6666 28.0194 39.6666 28.9994Z" fill="white"/>
<path d="M32.0717 35.3115C31.78 36.9215 31.4067 38.5082 30.8817 40.0482C30.8583 40.1415 30.8583 40.2115 30.8467 40.3049C29.9367 40.5265 28.98 40.6665 28 40.6665C27.0083 40.6665 26.0633 40.5265 25.1417 40.3049C25.13 40.2115 25.1417 40.1415 25.1183 40.0482C24.605 38.4965 24.22 36.9215 23.9283 35.3115C25.2817 35.4632 26.635 35.5682 28 35.5682C29.365 35.5682 30.73 35.4632 32.0717 35.3115Z" fill="white"/>
<path d="M32.3905 33.3902C29.4726 33.7584 26.5274 33.7584 23.6094 33.3902C23.2413 30.4723 23.2413 27.5271 23.6094 24.6091C26.5274 24.241 29.4726 24.241 32.3905 24.6091C32.7587 27.5271 32.7587 30.4723 32.3905 33.3902Z" fill="white"/>
<defs>
<linearGradient id="paint0_linear_529_19385" x1="13" y1="13" x2="48.5" y2="55.5" gradientUnits="userSpaceOnUse">
<stop stop-color="#8F5CE3"/>
<stop offset="0.988192" stop-color="#440F9B"/>
</linearGradient>
</defs>
</svg>
