<svg width="50" height="50" viewBox="0 0 50 50" fill="none" xmlns="http://www.w3.org/2000/svg">
<g clip-path="url(#clip0_542_26654)">
<mask id="mask0_542_26654" style="mask-type:luminance" maskUnits="userSpaceOnUse" x="0" y="0" width="50" height="50">
<path d="M0.00244141 0H49.9976V50H0.00244141V0Z" fill="white"/>
</mask>
<g mask="url(#mask0_542_26654)">
<path fill-rule="evenodd" clip-rule="evenodd" d="M-3.125 33.3398H53.125V41.6699H-3.125V33.3398Z" fill="#FFE700"/>
<path fill-rule="evenodd" clip-rule="evenodd" d="M-3.125 25H53.125V33.3301H-3.125V25Z" fill="black"/>
<path fill-rule="evenodd" clip-rule="evenodd" d="M-3.125 16.6689H53.125V24.999H-3.125V16.6689Z" fill="#DE3908"/>
<path fill-rule="evenodd" clip-rule="evenodd" d="M-3.125 8.33984H53.125V16.6699H-3.125V8.33984Z" fill="#FFE700"/>
<path fill-rule="evenodd" clip-rule="evenodd" d="M-3.125 0H53.125V8.33008H-3.125V0Z" fill="black"/>
<path fill-rule="evenodd" clip-rule="evenodd" d="M30.8375 25.001C30.8375 27.0652 30.2225 29.0449 29.1278 30.5045C28.0331 31.9642 26.5483 32.7842 25.0001 32.7842C23.4519 32.7842 21.9672 31.9642 20.8725 30.5045C19.7777 29.0449 19.1627 27.0652 19.1627 25.001C19.1627 22.9367 19.7777 20.9571 20.8725 19.4974C21.9672 18.0378 23.4519 17.2178 25.0001 17.2178C26.5483 17.2178 28.0331 18.0378 29.1278 19.4974C30.2225 20.9571 30.8375 22.9367 30.8375 25.001Z" fill="#FFFDFF" stroke="black" stroke-width="0.366211"/>
<path fill-rule="evenodd" clip-rule="evenodd" d="M23.9747 19.0342L23.5939 18.1064C23.7404 17.9111 23.9821 17.7549 24.3776 17.7549L24.3336 18.7803L23.9674 19.0342H23.9747Z" fill="#DE3108" stroke="black" stroke-width="0.366211"/>
<path fill-rule="evenodd" clip-rule="evenodd" d="M24.3408 18.7796L24.3921 17.7542C24.3921 17.7542 25.1758 17.6956 25.6006 18.3792L25.1831 19.18L24.3335 18.7893L24.3408 18.7796Z" fill="#FFE700" stroke="black" stroke-width="0.366211"/>
<path fill-rule="evenodd" clip-rule="evenodd" d="M25.1904 19.1699L25.5786 18.3691C25.835 18.7305 25.9448 18.9844 25.9814 19.375C25.9888 19.3848 25.3735 19.5801 25.3735 19.5703L25.1904 19.1699Z" fill="#DE3108" stroke="black" stroke-width="0.366211"/>
<path fill-rule="evenodd" clip-rule="evenodd" d="M24.165 32.3337C24.165 32.3337 24.8901 31.2302 26.2964 31.4646C26.084 31.0056 25.3955 31.0642 25.3955 31.0642C25.3955 31.0642 25.1904 28.9157 25.3516 28.7985C25.5127 28.6814 26.2305 28.8083 26.2305 28.8083C26.3184 28.8083 26.4795 28.4763 26.3477 28.2614C26.2231 28.0466 25.8496 27.236 26.0034 27.07C26.1572 26.9138 26.9849 27.1677 26.9849 27.1677L24.6411 23.1638C24.6411 23.1638 24.3994 21.6501 24.8828 20.9177C25.4614 20.2829 25.3955 19.5896 25.3809 19.5993C25.3003 18.8962 24.502 18.3982 23.96 19.0427C23.645 19.5505 23.8574 19.9411 23.8574 19.9411C23.8574 19.9411 23.0151 20.2439 22.9858 20.4392C22.9492 20.6345 23.9307 20.4099 23.9307 20.4099L23.8354 21.2985C23.8354 21.2985 21.9312 23.6032 23.396 25.5954L23.4399 25.5173C23.4399 25.5173 23.9526 26.3571 24.4873 26.5427C25 27.2263 24.9487 27.1286 24.9487 27.1286C24.9487 27.1286 25.0439 28.2126 24.9487 28.4275C24.8242 28.3786 23.5352 28.3103 23.3447 28.4079C23.1689 28.486 22.5098 28.4372 22.6709 29.8825L22.9126 29.1501C22.9126 29.1501 22.8906 29.6677 23.0518 29.8532C23.0225 29.3064 23.2056 28.9353 23.2056 28.9353C23.2056 28.9353 23.2349 29.5407 23.3374 29.6189C23.4399 29.7165 23.4399 28.6423 23.9966 28.74C24.5386 28.8278 24.9414 28.7985 24.9414 28.7985C24.9414 28.7985 25.1245 30.8884 25.0659 31.0837C24.6704 30.9567 23.7183 31.1325 23.6597 31.4548C24.2163 31.406 24.4727 31.4939 24.4727 31.4939C24.4727 31.4939 24.0259 32.031 24.165 32.3337Z" fill="black" stroke="black" stroke-width="0.32959" stroke-linecap="round" stroke-linejoin="round"/>
<path fill-rule="evenodd" clip-rule="evenodd" d="M24.3848 20.9756C24.3848 20.9756 23.0005 23.0068 23.6011 24.5596C23.6304 24.3447 23.6158 24.208 23.6377 24.2178C23.6011 24.1885 23.8062 24.4033 23.7916 24.3643C23.7916 24.2471 23.733 24.0029 23.733 24.0029L23.9161 24.0713L23.8062 23.7979L24.0772 23.8369C24.0772 23.8369 23.982 23.5049 24.0113 23.5049L24.231 23.5244C23.8355 22.5869 24.209 21.8057 24.3848 20.9658V20.9756Z" fill="#9CA69C" stroke="#9CA69C" stroke-width="0.32959" stroke-linecap="round" stroke-linejoin="round"/>
<path fill-rule="evenodd" clip-rule="evenodd" d="M24.8681 19.2285C24.8681 19.2285 24.9414 19.9316 24.6484 20.127C24.6118 20.1758 24.4287 20.2539 24.458 20.4004C24.4873 20.5957 24.5679 20.5566 24.6777 20.5176C24.978 20.4492 25.3296 19.5996 24.8681 19.2285Z" fill="#9CA69C" stroke="#9CA69C" stroke-width="0.366211"/>
<path fill-rule="evenodd" clip-rule="evenodd" d="M24.3555 19.8242C24.3555 19.8631 24.3439 19.9003 24.3233 19.9278C24.3027 19.9553 24.2747 19.9707 24.2456 19.9707C24.2165 19.9707 24.1885 19.9553 24.1679 19.9278C24.1473 19.9003 24.1357 19.8631 24.1357 19.8242C24.1357 19.7854 24.1473 19.7481 24.1679 19.7206C24.1885 19.6932 24.2165 19.6777 24.2456 19.6777C24.2747 19.6777 24.3027 19.6932 24.3233 19.7206C24.3439 19.7481 24.3555 19.7854 24.3555 19.8242Z" fill="white"/>
<path fill-rule="evenodd" clip-rule="evenodd" d="M23.9087 20.4102C23.8354 20.498 23.4546 21.0254 23.8354 21.2207C24.2236 21.084 24.1138 20.9863 24.2017 20.8691C24.2017 20.625 24.0112 20.5664 23.9087 20.4199V20.4102Z" fill="#DE3108" stroke="black" stroke-width="0.366211"/>
<path fill-rule="evenodd" clip-rule="evenodd" d="M24.751 25.4395C24.729 25.5566 24.6411 25.9863 24.7583 26.3184C25.0952 26.123 25.249 26.1816 25.3589 26.2793C25.0879 25.9863 24.978 25.8594 24.751 25.4395Z" fill="#9CA69C" stroke="#9CA69C" stroke-width="0.32959" stroke-linecap="round" stroke-linejoin="round"/>
<path fill-rule="evenodd" clip-rule="evenodd" d="M25.3223 27.4512L25.3369 28.4473C25.3369 28.4473 25.6006 28.5059 25.7178 28.4473C25.835 28.3887 25.7178 27.7637 25.3223 27.4512Z" fill="white" stroke="white" stroke-width="0.32959" stroke-linecap="round" stroke-linejoin="round"/>
<path fill-rule="evenodd" clip-rule="evenodd" d="M27.1971 27.5793C27.1971 27.5793 26.721 26.0364 25.4978 25.6457C24.2747 25.2551 24.4358 23.5168 24.531 23.4094C24.5896 23.2629 24.6263 23.0285 24.9778 23.2532C25.3294 23.4778 26.9554 24.5617 27.1897 24.6203C27.4241 24.6789 27.219 27.6184 27.2044 27.5793H27.1971Z" fill="#9CA69C" stroke="black" stroke-width="0.366211"/>
<path fill-rule="evenodd" clip-rule="evenodd" d="M26.04 25.6357C26.018 25.6553 27.6733 26.9443 27.1752 28.0479C27.644 27.6279 27.4975 26.9053 27.4975 26.9053C27.4975 26.9053 27.8784 28.2432 26.9409 28.8975C27.0434 29.0146 27.1093 28.9951 27.1093 28.9951L26.9482 29.2002C26.9482 29.2002 26.8749 29.3662 27.5048 28.9561C27.3364 29.1416 27.3217 29.2783 27.3217 29.2783C27.3217 29.2783 27.3657 29.4541 27.7758 28.9756C27.4462 29.4541 27.373 29.6982 27.373 29.6885C28.2739 29.5908 30.2294 25.6846 26.7578 24.542L26.9116 24.7568L26.0327 25.6357H26.04Z" fill="#DE3108" stroke="black" stroke-width="0.32959" stroke-linejoin="round"/>
<path fill-rule="evenodd" clip-rule="evenodd" d="M26.1134 25.2548C26.3331 25.4696 26.4137 25.5477 26.443 25.6454C26.2379 25.5868 26.0548 25.6063 26.0548 25.6063C26.0548 25.6063 25.608 25.0399 25.5275 24.9911C25.4689 24.9911 25.1173 24.6981 25.1173 24.6981C24.9489 24.5809 24.7877 23.7899 25.4249 24.0145C25.6694 24.1845 25.9213 24.3345 26.1793 24.4638L26.963 24.7958L27.4171 25.4696C27.4171 25.4696 26.6115 24.9423 26.5089 24.9325C26.7287 25.1669 26.8532 25.4989 26.8532 25.4989C26.5968 25.4013 26.3771 25.3036 26.1134 25.2548Z" fill="white" stroke="black" stroke-width="0.32959" stroke-linecap="round" stroke-linejoin="round"/>
<path d="M22.9785 20.4982C22.9785 20.4982 23.7476 20.2443 23.8428 20.2834" stroke="white" stroke-width="0.32959" stroke-linecap="round"/>
<path fill-rule="evenodd" clip-rule="evenodd" d="M-3.125 41.6689H53.125V49.999H-3.125V41.6689Z" fill="#DE3908"/>
</g>
</g>
<defs>
<clipPath id="clip0_542_26654">
<rect width="50" height="50" rx="25" fill="white"/>
</clipPath>
</defs>
</svg>
