<svg width="24" height="25" viewBox="0 0 24 25" fill="none" xmlns="http://www.w3.org/2000/svg">
<path d="M7.65 21.4098C7.62 21.4098 7.58 21.4298 7.55 21.4298C5.61 20.4698 4.03 18.8798 3.06 16.9398C3.06 16.9098 3.08 16.8698 3.08 16.8398C4.3 17.1998 5.56 17.4698 6.81 17.6798C7.03 18.9398 7.29 20.1898 7.65 21.4098Z" fill="#4A4C58"/>
<path d="M20.94 16.9498C19.95 18.9398 18.3 20.5498 16.29 21.5198C16.67 20.2498 16.99 18.9698 17.2 17.6798C18.46 17.4698 19.7 17.1998 20.92 16.8398C20.91 16.8798 20.94 16.9198 20.94 16.9498Z" fill="#4A4C58"/>
<path d="M21.02 8.21047C19.76 7.83047 18.49 7.52047 17.2 7.30047C16.99 6.01047 16.68 4.73047 16.29 3.48047C18.36 4.47047 20.03 6.14047 21.02 8.21047Z" fill="#4A4C58"/>
<path d="M7.65 3.58957C7.29 4.80957 7.03 6.04957 6.82 7.30957C5.53 7.50957 4.25 7.82957 2.98 8.20957C3.95 6.19957 5.56 4.54957 7.55 3.55957C7.58 3.55957 7.62 3.58957 7.65 3.58957Z" fill="#4A4C58"/>
<path d="M15.49 7.09C13.17 6.83 10.83 6.83 8.50999 7.09C8.75999 5.72 9.07999 4.35 9.52999 3.03C9.54999 2.95 9.53999 2.89 9.54999 2.81C10.34 2.62 11.15 2.5 12 2.5C12.84 2.5 13.66 2.62 14.44 2.81C14.45 2.89 14.45 2.95 14.47 3.03C14.92 4.36 15.24 5.72 15.49 7.09Z" fill="#4A4C58"/>
<path d="M6.59 15.9898C5.21 15.7398 3.85 15.4198 2.53 14.9698C2.45 14.9498 2.39 14.9598 2.31 14.9498C2.12 14.1598 2 13.3498 2 12.4998C2 11.6598 2.12 10.8398 2.31 10.0598C2.39 10.0498 2.45 10.0498 2.53 10.0298C3.86 9.58977 5.21 9.25977 6.59 9.00977C6.34 11.3298 6.34 13.6698 6.59 15.9898Z" fill="#4A4C58"/>
<path d="M22 12.4998C22 13.3498 21.88 14.1598 21.69 14.9498C21.61 14.9598 21.55 14.9498 21.47 14.9698C20.14 15.4098 18.78 15.7398 17.41 15.9898C17.67 13.6698 17.67 11.3298 17.41 9.00977C18.78 9.25977 20.15 9.57977 21.47 10.0298C21.55 10.0498 21.61 10.0598 21.69 10.0598C21.88 10.8498 22 11.6598 22 12.4998Z" fill="#4A4C58"/>
<path d="M15.49 17.9102C15.24 19.2902 14.92 20.6502 14.47 21.9702C14.45 22.0502 14.45 22.1102 14.44 22.1902C13.66 22.3802 12.84 22.5002 12 22.5002C11.15 22.5002 10.34 22.3802 9.54999 22.1902C9.53999 22.1102 9.54999 22.0502 9.52999 21.9702C9.08999 20.6402 8.75999 19.2902 8.50999 17.9102C9.66999 18.0402 10.83 18.1302 12 18.1302C13.17 18.1302 14.34 18.0402 15.49 17.9102Z" fill="#4A4C58"/>
<path d="M15.7633 16.2633C13.2622 16.5789 10.7378 16.5789 8.23667 16.2633C7.92111 13.7622 7.92111 11.2378 8.23667 8.73667C10.7378 8.42111 13.2622 8.42111 15.7633 8.73667C16.0789 11.2378 16.0789 13.7622 15.7633 16.2633Z" fill="#4A4C58"/>
</svg>
