<svg width="41" height="51" viewBox="0 0 41 51" fill="none" xmlns="http://www.w3.org/2000/svg">
<path d="M41 20.694C41 32.1229 33.4474 37.0313 20.2303 50.1011C4.85526 34.3084 0 32.1229 0 20.694C0 9.265 9.17816 0 20.5 0C31.8218 0 41 9.265 41 20.694Z" fill="#515055"/>
<path d="M17.9641 22.5997L9.71332 11.9805H14.6638L20.4393 19.2682L26.0086 11.9805H30.9591L22.9146 22.5997L20.4393 19.2682L17.9641 22.5997Z" fill="white"/>
<path d="M17.9632 22.5995L9.71246 33.2188H14.6629L20.4385 25.931L26.0077 33.2188H30.9582L22.9137 22.5995L20.4385 19.268L17.9632 22.5995Z" fill="#EA2920"/>
</svg>
