<svg width="36" height="36" viewBox="0 0 36 36" fill="none" xmlns="http://www.w3.org/2000/svg">
<rect width="36" height="36" rx="6" fill="#4A4C58"/>
<path d="M10.9999 27C10.4499 27 9.97922 26.8043 9.58788 26.413C9.19588 26.021 8.99988 25.55 8.99988 25V17.05C8.61655 16.7 8.32088 16.25 8.11288 15.7C7.90422 15.15 7.89988 14.55 8.09988 13.9L9.14988 10.5C9.28322 10.0667 9.52088 9.70833 9.86288 9.425C10.2042 9.14167 10.5999 9 11.0499 9H24.9499C25.3999 9 25.7915 9.13733 26.1249 9.412C26.4582 9.68733 26.6999 10.05 26.8499 10.5L27.8999 13.9C28.0999 14.55 28.0959 15.1417 27.8879 15.675C27.6792 16.2083 27.3832 16.6667 26.9999 17.05V25C26.9999 25.55 26.8042 26.021 26.4129 26.413C26.0209 26.8043 25.5499 27 24.9999 27H10.9999ZM20.1999 16C20.6499 16 20.9915 15.8457 21.2249 15.537C21.4582 15.229 21.5499 14.8833 21.4999 14.5L20.9499 11H18.9999V14.7C18.9999 15.05 19.1165 15.3543 19.3499 15.613C19.5832 15.871 19.8666 16 20.1999 16ZM15.6999 16C16.0832 16 16.3959 15.871 16.6379 15.613C16.8792 15.3543 16.9999 15.05 16.9999 14.7V11H15.0499L14.4999 14.5C14.4332 14.9 14.5209 15.25 14.7629 15.55C15.0042 15.85 15.3166 16 15.6999 16ZM11.2499 16C11.5499 16 11.8122 15.8917 12.0369 15.675C12.2622 15.4583 12.3999 15.1833 12.4499 14.85L12.9999 11H11.0499L10.0499 14.35C9.94988 14.6833 10.0039 15.0417 10.2119 15.425C10.4205 15.8083 10.7665 16 11.2499 16ZM24.7499 16C25.2332 16 25.5832 15.8083 25.7999 15.425C26.0166 15.0417 26.0665 14.6833 25.9499 14.35L24.8999 11H22.9999L23.5499 14.85C23.5999 15.1833 23.7375 15.4583 23.9629 15.675C24.1875 15.8917 24.4499 16 24.7499 16ZM10.9999 25H24.9999V17.95C24.9165 17.9833 24.8625 18 24.8379 18H24.7499C24.2999 18 23.9039 17.925 23.5619 17.775C23.2205 17.625 22.8832 17.3833 22.5499 17.05C22.2499 17.35 21.9082 17.5833 21.5249 17.75C21.1416 17.9167 20.7332 18 20.2999 18C19.8499 18 19.4289 17.9167 19.0369 17.75C18.6455 17.5833 18.2999 17.35 17.9999 17.05C17.7165 17.35 17.3875 17.5833 17.0129 17.75C16.6375 17.9167 16.2332 18 15.7999 18C15.3165 18 14.8789 17.9167 14.4869 17.75C14.0955 17.5833 13.7499 17.35 13.4499 17.05C13.0999 17.4 12.7542 17.6457 12.4129 17.787C12.0709 17.929 11.6832 18 11.2499 18H11.1379C11.0959 18 11.0499 17.9833 10.9999 17.95V25Z" fill="#DAD9DA"/>
</svg>
